<?xml version="1.0" encoding="UTF-8"?>
<svg width="412px" height="412px" viewBox="0 0 412 412" version="1.1" xmlns="http://www.w3.org/2000/svg" xmlns:xlink="http://www.w3.org/1999/xlink">
    <title>presskit/logo.svglogo-without-shadow</title>
    <defs>
        <linearGradient x1="63.6266013%" y1="-26.6275167%" x2="56.1587845%" y2="110.941355%" id="linearGradient-1">
            <stop stop-color="#B1B6C1" offset="0%"></stop>
            <stop stop-color="#262B36" offset="100%"></stop>
        </linearGradient>
        <linearGradient x1="50%" y1="0%" x2="50%" y2="100%" id="linearGradient-2">
            <stop stop-color="#FFFFFF" stop-opacity="0.5" offset="0%"></stop>
            <stop stop-color="#000000" stop-opacity="0.5" offset="100%"></stop>
        </linearGradient>
        <rect id="path-3" x="87.387298" y="153.647997" width="34.9095941" height="27.9276753" rx="6.98191881"></rect>
        <filter x="-73.0%" y="-91.3%" width="246.1%" height="282.6%" filterUnits="objectBoundingBox" id="filter-4">
            <feMorphology radius="0.5" operator="dilate" in="SourceAlpha" result="shadowSpreadOuter1"></feMorphology>
            <feOffset dx="0" dy="0" in="shadowSpreadOuter1" result="shadowOffsetOuter1"></feOffset>
            <feGaussianBlur stdDeviation="8" in="shadowOffsetOuter1" result="shadowBlurOuter1"></feGaussianBlur>
            <feColorMatrix values="0 0 0 0 1   0 0 0 0 0.149599848   0 0 0 0 0.259836904  0 0 0 0.5 0" type="matrix" in="shadowBlurOuter1"></feColorMatrix>
        </filter>
        <linearGradient x1="50%" y1="0%" x2="50%" y2="100%" id="linearGradient-5">
            <stop stop-color="#FFFFFF" stop-opacity="0.5" offset="0%"></stop>
            <stop stop-color="#000000" stop-opacity="0.5" offset="100%"></stop>
        </linearGradient>
        <rect id="path-6" x="87.1610537" y="76.5977539" width="34.9095941" height="34.9095941" rx="17.4547971"></rect>
        <filter x="-73.0%" y="-73.0%" width="246.1%" height="246.1%" filterUnits="objectBoundingBox" id="filter-7">
            <feMorphology radius="0.5" operator="dilate" in="SourceAlpha" result="shadowSpreadOuter1"></feMorphology>
            <feOffset dx="0" dy="0" in="shadowSpreadOuter1" result="shadowOffsetOuter1"></feOffset>
            <feGaussianBlur stdDeviation="8" in="shadowOffsetOuter1" result="shadowBlurOuter1"></feGaussianBlur>
            <feColorMatrix values="0 0 0 0 1   0 0 0 0 0.578947368   0 0 0 0 0  0 0 0 0.5 0" type="matrix" in="shadowBlurOuter1"></feColorMatrix>
        </filter>
        <linearGradient x1="47.1374185%" y1="18.0010634%" x2="50%" y2="128.750721%" id="linearGradient-8">
            <stop stop-color="#FFFFFF" stop-opacity="0.5" offset="0%"></stop>
            <stop stop-color="#000000" stop-opacity="0.5" offset="100%"></stop>
        </linearGradient>
        <rect id="path-9" x="170.933396" y="150.767097" width="34.9095941" height="34.9095941" rx="17.4547971"></rect>
        <filter x="-73.0%" y="-73.0%" width="246.1%" height="246.1%" filterUnits="objectBoundingBox" id="filter-10">
            <feMorphology radius="0.5" operator="dilate" in="SourceAlpha" result="shadowSpreadOuter1"></feMorphology>
            <feOffset dx="0" dy="0" in="shadowSpreadOuter1" result="shadowOffsetOuter1"></feOffset>
            <feGaussianBlur stdDeviation="8" in="shadowOffsetOuter1" result="shadowBlurOuter1"></feGaussianBlur>
            <feColorMatrix values="0 0 0 0 0.281217607   0 0 0 0 0.201352896   0 0 0 0 1  0 0 0 0.7 0" type="matrix" in="shadowBlurOuter1"></feColorMatrix>
        </filter>
        <rect id="path-11" x="0" y="76.5977539" width="34.9095941" height="34.9095941" rx="5.81826591"></rect>
        <filter x="-73.0%" y="-73.0%" width="246.1%" height="246.1%" filterUnits="objectBoundingBox" id="filter-12">
            <feMorphology radius="0.5" operator="dilate" in="SourceAlpha" result="shadowSpreadOuter1"></feMorphology>
            <feOffset dx="0" dy="0" in="shadowSpreadOuter1" result="shadowOffsetOuter1"></feOffset>
            <feGaussianBlur stdDeviation="8" in="shadowOffsetOuter1" result="shadowBlurOuter1"></feGaussianBlur>
            <feColorMatrix values="0 0 0 0 0.082728068   0 0 0 0 0.920799366   0 0 0 0 0.836429772  0 0 0 0.5 0" type="matrix" in="shadowBlurOuter1"></feColorMatrix>
        </filter>
        <linearGradient x1="50%" y1="0%" x2="50%" y2="100%" id="linearGradient-13">
            <stop stop-color="#FFFFFF" offset="0%"></stop>
            <stop stop-color="#FFFFFF" stop-opacity="0" offset="100%"></stop>
        </linearGradient>
        <polygon id="path-14" points="17.4547971 0 34.9095941 34.9095941 0 34.9095941"></polygon>
        <filter x="-74.8%" y="-76.6%" width="249.6%" height="249.6%" filterUnits="objectBoundingBox" id="filter-15">
            <feMorphology radius="0.5" operator="dilate" in="SourceAlpha" result="shadowSpreadOuter1"></feMorphology>
            <feOffset dx="0" dy="0" in="shadowSpreadOuter1" result="shadowOffsetOuter1"></feOffset>
            <feGaussianBlur stdDeviation="8" in="shadowOffsetOuter1" result="shadowBlurOuter1"></feGaussianBlur>
            <feColorMatrix values="0 0 0 0 1   0 0 0 0 0.144512195   0 0 0 0 0.439117267  0 0 0 0.5 0" type="matrix" in="shadowBlurOuter1"></feColorMatrix>
        </filter>
        <path d="M279.442108,0 C325.535375,0 342.249907,4.79926611 359.100917,13.8112846 C375.951926,22.823303 389.176697,36.0480739 398.188715,52.8990833 L398.724377,53.9102162 C407.390785,70.4304255 412,87.3864905 412,132.557892 L412,279.442108 C412,325.535375 407.200734,342.249907 398.188715,359.100917 C389.176697,375.951926 375.951926,389.176697 359.100917,398.188715 L358.089784,398.724377 C341.569574,407.390785 324.61351,412 279.442108,412 L132.557892,412 C86.4646251,412 69.7500928,407.200734 52.8990833,398.188715 C36.0480739,389.176697 22.823303,375.951926 13.8112846,359.100917 L13.2756235,358.089784 C4.60921517,341.569574 0,324.61351 0,279.442108 L0,132.557892 C0,86.4646251 4.79926611,69.7500928 13.8112846,52.8990833 C22.823303,36.0480739 36.0480739,22.823303 52.8990833,13.8112846 L53.9102162,13.2756235 C70.261852,4.69764791 87.0404937,0.094488064 131.183878,0 L279.442108,0 Z" id="path-16"></path>
        <path d="M12.4989222,147.001526 C12.4989222,130.33296 12.4989222,94.1036924 12.4989222,38.313724 C12.4989222,-17.4762443 49.8221892,-52.0605527 124.468723,-65.439201 L416.780736,-15.439201 C423.810963,107.996296 426.026026,203.307419 423.425923,270.494168 C422.458525,295.49175 401.013392,414.645375 295.053851,371.57705 C259.989633,357.324844 46.6101166,204.033257 32.8938116,194.124034 C19.1775065,184.214811 12.4989222,163.912514 12.4989222,147.001526 Z" id="path-18"></path>
        <filter x="-1.8%" y="-1.7%" width="103.6%" height="103.4%" filterUnits="objectBoundingBox" id="filter-19">
            <feOffset dx="0" dy="0" in="SourceAlpha" result="shadowOffsetOuter1"></feOffset>
            <feGaussianBlur stdDeviation="2.5" in="shadowOffsetOuter1" result="shadowBlurOuter1"></feGaussianBlur>
            <feColorMatrix values="0 0 0 0 0.0901829374   0 0 0 0 0.0956124026   0 0 0 0 0.106685915  0 0 0 0.22 0" type="matrix" in="shadowBlurOuter1"></feColorMatrix>
        </filter>
        <path d="M279.442108,0 C325.535375,0 342.249907,4.79926611 359.100917,13.8112846 C375.951926,22.823303 389.176697,36.0480739 398.188715,52.8990833 L398.724377,53.9102162 C407.390785,70.4304255 412,87.3864905 412,132.557892 L412,279.442108 C412,325.535375 407.200734,342.249907 398.188715,359.100917 C389.176697,375.951926 375.951926,389.176697 359.100917,398.188715 L358.089784,398.724377 C341.569574,407.390785 324.61351,412 279.442108,412 L132.557892,412 C86.4646251,412 69.7500928,407.200734 52.8990833,398.188715 C36.0480739,389.176697 22.823303,375.951926 13.8112846,359.100917 L13.2756235,358.089784 C4.60921517,341.569574 0,324.61351 0,279.442108 L0,132.557892 C0,86.4646251 4.79926611,69.7500928 13.8112846,52.8990833 C22.823303,36.0480739 36.0480739,22.823303 52.8990833,13.8112846 L53.9102162,13.2756235 C70.261852,4.69764791 87.0404937,0.094488064 131.183878,0 L279.442108,0 Z" id="path-20"></path>
        <linearGradient x1="83.7336933%" y1="9.37740117%" x2="73.3022495%" y2="88.7287971%" id="linearGradient-22">
            <stop stop-color="#41E0FF" offset="0%"></stop>
            <stop stop-color="#0B8AF5" offset="58.3888767%"></stop>
            <stop stop-color="#0054EC" offset="100%"></stop>
        </linearGradient>
        <path d="M306.274834,372.436649 C359.685001,372.449217 398.423267,334.377036 398.414835,281.1661 L397.483534,90.5821803 C397.475435,39.7696199 357.088127,-0.989585564 306.274834,-1 L92.6458245,-1 C42.3415216,-1.01018294 2.68447662,30.4710216 1.84871644,80.5821803 L7.67386155e-13,121.854864 C7.67386155e-13,133.958306 0.00850549982,146.382677 0.031911582,155.330182 C0.0580456245,165.320511 5.16312014,175.254487 13.3183005,180.930054 L33.4256856,194.84453 C92.3610667,235.596794 259.454668,351.036137 274.580585,361.249276 C292.407558,373.286189 301.809118,372.435825 306.144991,372.436358 L306.274834,372.436649 Z" id="path-23"></path>
        <path d="M163.173423,169.450615 C164.404679,171.226996 165.545159,173.064608 166.59048,174.956386 L256.306657,337.319551 L256.85273,338.205999 C259.103378,341.77935 267.958656,355.061911 279.633626,362.499008 L280.461897,363.017197 C292.566399,370.453254 302.708926,370.722948 304.315288,370.716259 L304.480086,370.713781 L304.405517,370.715995 C303.089729,370.784702 300.91599,371.930302 298.045534,373.182358 L297.508747,373.095696 C292.243054,372.203339 284.743694,369.694361 274.318972,362.74134 L273.77715,362.377724 C255.770107,350.219225 22.3893603,188.930619 12.5148662,182.058502 C7.30296572,178.431299 4.03948141,172.581475 1.84871644,166.572545 L2.43558179,166.183572 C3.23248447,165.666319 3.79979334,165.348038 4.01405577,165.303163 C5.35039114,165.023277 6.02909552,165.973668 6.02909552,165.973668 L6.09746036,166.128642 C6.53761054,167.076665 8.52885348,172.686649 17.1380382,177.24323 C26.66788,182.287088 41.3876715,175.720772 41.3876715,175.720772 C42.0557879,175.406311 43.0963406,174.806435 43.7226544,174.373415 L74.1134623,153.308759 C103.164142,133.17298 143.037645,140.399935 163.173423,169.450615 Z M329.5,25.5493311 C329.776142,25.5493311 330,25.3254735 330,25.0493311 C330,24.7731888 329.776142,24.5493311 329.5,24.5493311 C329.223858,24.5493311 329,24.7731888 329,25.0493311 C329,25.3254735 329.223858,25.5493311 329.5,25.5493311 Z" id="path-25"></path>
        <filter x="-22.9%" y="-21.5%" width="145.7%" height="143.0%" filterUnits="objectBoundingBox" id="filter-26">
            <feOffset dx="0" dy="0" in="SourceAlpha" result="shadowOffsetOuter1"></feOffset>
            <feGaussianBlur stdDeviation="25" in="shadowOffsetOuter1" result="shadowBlurOuter1"></feGaussianBlur>
            <feColorMatrix values="0 0 0 0 0   0 0 0 0 0.236731219   0 0 0 0 0.73717731  0 0 0 0.5 0" type="matrix" in="shadowBlurOuter1"></feColorMatrix>
        </filter>
        <linearGradient x1="80.3892727%" y1="9.87689703%" x2="62.0007853%" y2="83.8739622%" id="linearGradient-27">
            <stop stop-color="#41E0FF" offset="0.0527871622%"></stop>
            <stop stop-color="#1E97ED" offset="100%"></stop>
        </linearGradient>
        <linearGradient x1="92.0573018%" y1="92.3721163%" x2="78.3300185%" y2="93.322186%" id="linearGradient-28">
            <stop stop-color="#0363EF" offset="0%"></stop>
            <stop stop-color="#0361EE" stop-opacity="0" offset="100%"></stop>
        </linearGradient>
        <path d="M334.413691,367.5 C347.602415,367.5 359.971434,365.339382 372.107101,359.769421 C379.847728,356.216671 387.691106,351.366974 394.94986,344.513591 C400.206749,339.550277 404.995847,334.558786 410.722145,322.915142 C413.468578,317.330647 415.369846,310.159741 416.671197,304.549666 C417.972549,298.939592 419.500095,279.800231 419.5,265.819059 L422.425635,51.6246105 C422.419003,10.0155294 412.811668,-1.21123834 397.151516,-17.7099346 C380.384189,-35.3750896 358.869989,-46.4903036 311.268221,-46.5 L133.025554,-13.4422824 C90.1876249,-13.4529737 68.4579305,-3.96137343 51.9842182,11.5254079 C34.4797437,27.9811991 23.7485695,38.2871356 22.9857186,84.026745 L22.9538399,115.834909 C22.9538399,127.938351 22.9623454,140.362722 22.9857515,149.310227 C23.0118855,159.300556 28.11696,169.234532 36.2721404,174.910099 L56.3795255,188.824574 C115.314907,229.576839 293.979223,352.692343 297.072071,354.838988 C299.562501,356.567514 308.182778,363.058178 321.526733,365.940101 C324.754542,366.637218 330.649482,367.5 334.413691,367.5 Z" id="path-29"></path>
        <path d="M329.228674,373.436649 C382.638841,373.449217 421.377107,335.377036 421.368675,282.1661 L420.437374,91.5821803 C420.429275,40.7696199 380.041967,0.0104144357 329.228674,0 L115.599664,0 C65.2953614,-0.0101829445 25.6383165,31.4710216 24.8025563,81.5821803 L22.9538399,122.854864 C22.9538399,134.958306 22.9623454,147.382677 22.9857515,156.330182 C23.0118855,166.320511 28.11696,176.254487 36.2721404,181.930054 L56.3795255,195.84453 C115.314907,236.596794 282.408508,352.036137 297.534425,362.249276 C315.361398,374.286189 324.762958,373.435825 329.098831,373.436358 L329.228674,373.436649 Z" id="path-30"></path>
        <linearGradient x1="26.8394075%" y1="44.7196598%" x2="43.7905933%" y2="23.6661885%" id="linearGradient-32">
            <stop stop-color="#72BAE1" offset="0%"></stop>
            <stop stop-color="#EDF7FC" offset="100%"></stop>
        </linearGradient>
        <linearGradient x1="2.94717503%" y1="22.418471%" x2="99.879625%" y2="88.0109383%" id="linearGradient-33">
            <stop stop-color="#37A8F1" offset="0%"></stop>
            <stop stop-color="#37A8F1" stop-opacity="0" offset="8.92938253%"></stop>
            <stop stop-color="#1D95ED" stop-opacity="0" offset="90.5649038%"></stop>
            <stop stop-color="#1D93EB" offset="100%"></stop>
        </linearGradient>
        <path d="M22.9379503,121.600533 C23.0035114,122.571828 23.0109646,124.093633 23.0114909,126.021812 L23.0118598,128.354851 C23.0241864,139.141711 23.3280238,158.301707 29.8530799,169.135383 C38.2185363,183.024712 55.7964278,179.66118 64.8381372,175.40554 C67.3296305,174.232875 70.6549797,172.268589 74.8141849,169.512681 L75.6296047,168.969395 C81.4104299,165.097196 88.721871,159.771906 97.563928,152.993527 C126.614608,132.857748 166.48811,140.084703 186.623889,169.135383 C187.855145,170.911764 188.995625,172.749376 190.040946,174.641154 L279.757122,337.004319 L280.303195,337.890767 C280.447468,338.119828 280.622458,338.390464 280.826531,338.698167 L281.085272,339.084914 C284.042082,343.46831 291.818855,353.830799 300.803605,360.220737 L298.995578,363.232304 C298.591434,362.97044 298.182735,362.701767 297.769438,362.426108 L297.227616,362.062492 C279.220572,349.903993 45.6974882,188.732661 35.9653319,181.74327 C33.7381231,180.143744 31.2908711,178.225707 29.2814791,175.40554 C26.5557241,171.579963 24.4951616,166.594696 23.5724604,163.157196 C22.8723411,160.548919 22.6586057,153.82043 22.6417534,146.400584 L22.641301,144.632013 C22.6563479,135.543821 22.9264105,125.839209 22.9379503,121.600533 Z" id="path-34"></path>
        <linearGradient x1="2.57000865%" y1="22.9002941%" x2="99.3738058%" y2="78.3273377%" id="linearGradient-35">
            <stop stop-color="#FFFFFF" stop-opacity="0" offset="0.0136582168%"></stop>
            <stop stop-color="#FFFFFF" offset="25.9120088%"></stop>
            <stop stop-color="#FFFFFF" offset="40.6811534%"></stop>
            <stop stop-color="#FFFFFF" stop-opacity="0.340541055" offset="92.7829983%"></stop>
            <stop stop-color="#FFFFFF" stop-opacity="0" offset="100%"></stop>
        </linearGradient>
    </defs>
    <g id="logo-without-shadow" stroke="none" fill="none" fill-rule="evenodd" stroke-width="1">
        <g id="logo-thaoe-alt2-(refactor2)" transform="translate(0, -7.02)">
            <path d="M277.442108,19.0199553 C323.535375,19.0199553 330.249907,23.8192214 347.100917,32.8312398 C363.951926,41.8432583 377.176697,55.0680291 386.188715,71.9190386 L386.724377,72.9301715 C395.390785,89.4503808 400,96.4064457 400,141.577847 L400,286.462063 C400,306.793993 411.066193,321.40962 409.248918,332.84214 C406.946361,347.327583 403.225495,356.702912 398.188715,366.120872 C389.176697,382.971881 375.951926,396.196652 359.100917,405.208671 L358.089784,405.744332 C341.569574,414.41074 324.61351,419.019955 279.442108,419.019955 L132.557892,419.019955 C86.4646251,419.019955 69.7500928,414.220689 52.8990833,405.208671 C36.0480739,396.196652 22.823303,382.971881 13.8112846,366.120872 L13.2756235,365.109739 C4.60921517,348.58953 0,331.633465 0,286.462063 L0,139.577847 C0,93.4845804 4.79926611,76.770048 13.8112846,59.9190386 C21.219818,46.0662854 31.4753437,34.6641565 44.2520184,26.0384951 C47.0173708,24.1715778 49.900827,34.4347248 52.8990833,32.8312398 L53.9102162,32.2955787 C70.261852,23.7176032 87.0404937,19.1144433 131.183878,19.0199553 L277.442108,19.0199553 Z" id="tahoe_base-(shrinked)" fill="url(#linearGradient-1)"></path>
            <g id="icons" transform="translate(51.6558, 185.6892)">
                <g id="rectangle">
                    <use fill="black" fill-opacity="1" filter="url(#filter-4)" xlink:href="#path-3"></use>
                    <use fill="#FF3F70" fill-rule="evenodd" xlink:href="#path-3"></use>
                    <use fill="url(#linearGradient-2)" fill-rule="evenodd" style="mix-blend-mode: overlay;" xlink:href="#path-3"></use>
                </g>
                <g id="circle">
                    <use fill="black" fill-opacity="1" filter="url(#filter-7)" xlink:href="#path-6"></use>
                    <use fill="#FFA000" fill-rule="evenodd" xlink:href="#path-6"></use>
                    <use fill="url(#linearGradient-5)" fill-rule="evenodd" style="mix-blend-mode: overlay;" xlink:href="#path-6"></use>
                </g>
                <g id="circle">
                    <use fill="black" fill-opacity="1" filter="url(#filter-10)" xlink:href="#path-9"></use>
                    <use fill="#5D49FF" fill-rule="evenodd" xlink:href="#path-9"></use>
                    <use fill="url(#linearGradient-8)" fill-rule="evenodd" style="mix-blend-mode: overlay;" xlink:href="#path-9"></use>
                </g>
                <g id="square">
                    <use fill="black" fill-opacity="1" filter="url(#filter-12)" xlink:href="#path-11"></use>
                    <use fill="#2FF5E2" fill-rule="evenodd" xlink:href="#path-11"></use>
                    <use fill="url(#linearGradient-5)" fill-rule="evenodd" style="mix-blend-mode: overlay;" xlink:href="#path-11"></use>
                </g>
                <g id="triangle">
                    <use fill="black" fill-opacity="1" filter="url(#filter-15)" xlink:href="#path-14"></use>
                    <use fill="#F73268" fill-rule="evenodd" xlink:href="#path-14"></use>
                    <use fill="url(#linearGradient-13)" fill-rule="evenodd" style="mix-blend-mode: overlay;" xlink:href="#path-14"></use>
                </g>
            </g>
            <g id="shadow" transform="translate(0, 7.02)">
                <mask id="mask-17" fill="white">
                    <use xlink:href="#path-16"></use>
                </mask>
                <g id="tahoe_base"></g>
                <g id="Shadow" mask="url(#mask-17)" fill="black" fill-opacity="1">
                    <use filter="url(#filter-19)" xlink:href="#path-18"></use>
                </g>
            </g>
            <g id="blue-overlay" transform="translate(0, 7.02)">
                <mask id="mask-21" fill="white">
                    <use xlink:href="#path-20"></use>
                </mask>
                <g id="tahoe_base-"></g>
                <g id="Group" mask="url(#mask-21)">
                    <g transform="translate(22.9538, -7.02)">
                        <mask id="mask-24" fill="white">
                            <use xlink:href="#path-23"></use>
                        </mask>
                        <use id="blue-base" stroke="none" fill="url(#linearGradient-22)" fill-rule="evenodd" xlink:href="#path-23"></use>
                        <g id="fold-shadow" stroke="none" fill="none" mask="url(#mask-24)" fill-opacity="1">
                            <use fill="black" filter="url(#filter-26)" xlink:href="#path-25"></use>
                        </g>
                    </g>
                </g>
                <g id="blue-base-border" mask="url(#mask-21)" stroke-linejoin="square" stroke-width="3.5">
                    <path stroke="url(#linearGradient-27)" d="M311.428724,-44.7499247 C358.163259,-44.7156391 379.381577,-33.8893899 395.882244,-16.5051735 C411.268831,-0.294690908 420.66727,10.7540996 420.675633,51.6128189 L417.75,265.807141 C417.750282,269.875999 417.620042,274.385195 417.403644,278.865014 L417.347571,279.988189 C417.338198,280.170061 417.32869,280.351825 417.319052,280.533449 L417.259672,281.621264 C416.711515,291.391941 415.797885,300.569988 414.966461,304.154224 C413.692183,309.647588 411.841457,316.673747 409.151778,322.142842 C403.558675,333.515652 398.88329,338.393066 393.748464,343.241134 C386.639864,349.952748 378.957371,354.699799 371.377112,358.178944 C359.476471,363.641034 347.345556,365.75 334.413691,365.75 C330.757067,365.75 325.031443,364.906672 321.896166,364.22954 C309.684859,361.592238 301.540349,355.845368 298.593742,353.768853 C298.396875,353.630118 298.22215,353.50701 298.069898,353.401337 C297.284138,352.855967 285.167798,344.503808 266.561808,331.678155 C243.98599,316.115983 211.854372,293.966719 178.817271,271.186627 L176.53752,269.614658 C175.397032,268.828246 174.255703,268.041247 173.113889,267.253904 L166.666107,262.807721 C166.236233,262.511287 165.806384,262.21487 165.37658,261.918482 L162.798441,260.140613 L160.222281,258.364076 C119.453533,230.249426 79.7699241,202.870794 57.3753516,187.385536 L37.2717879,173.473713 C29.5727351,168.115586 24.7604117,158.734892 24.7357455,149.305649 C24.7188438,142.844616 24.7097141,134.570328 24.7059457,125.913323 L24.70517,123.909185 L24.7048516,122.903372 L24.7040208,118.865083 L24.7039197,117.8544 L24.703839,115.836663 L24.7357039,84.0422346 C25.4869354,39.1250961 35.9811523,28.971623 53.182872,12.8004487 C69.4334747,-2.4765894 90.9162232,-11.7263008 133.186005,-11.6921974 Z"></path>
                    <path stroke="url(#linearGradient-28)" d="M311.428724,-44.7499247 C358.163259,-44.7156391 379.381577,-33.8893899 395.882244,-16.5051735 C411.268831,-0.294690908 420.66727,10.7540996 420.675633,51.6128189 L417.75,265.807141 C417.750282,269.875999 417.620042,274.385195 417.403644,278.865014 L417.347571,279.988189 C417.338198,280.170061 417.32869,280.351825 417.319052,280.533449 L417.259672,281.621264 C416.711515,291.391941 415.797885,300.569988 414.966461,304.154224 C413.692183,309.647588 411.841457,316.673747 409.151778,322.142842 C403.558675,333.515652 398.88329,338.393066 393.748464,343.241134 C386.639864,349.952748 378.957371,354.699799 371.377112,358.178944 C359.476471,363.641034 347.345556,365.75 334.413691,365.75 C330.757067,365.75 325.031443,364.906672 321.896166,364.22954 C309.684859,361.592238 301.540349,355.845368 298.593742,353.768853 C298.396875,353.630118 298.22215,353.50701 298.069898,353.401337 C297.284138,352.855967 285.167798,344.503808 266.561808,331.678155 C243.98599,316.115983 211.854372,293.966719 178.817271,271.186627 L176.53752,269.614658 C175.397032,268.828246 174.255703,268.041247 173.113889,267.253904 L166.666107,262.807721 C166.236233,262.511287 165.806384,262.21487 165.37658,261.918482 L162.798441,260.140613 L160.222281,258.364076 C119.453533,230.249426 79.7699241,202.870794 57.3753516,187.385536 L37.2717879,173.473713 C29.5727351,168.115586 24.7604117,158.734892 24.7357455,149.305649 C24.7188438,142.844616 24.7097141,134.570328 24.7059457,125.913323 L24.70517,123.909185 L24.7048516,122.903372 L24.7040208,118.865083 L24.7039197,117.8544 L24.703839,115.836663 L24.7357039,84.0422346 C25.4869354,39.1250961 35.9811523,28.971623 53.182872,12.8004487 C69.4334747,-2.4765894 90.9162232,-11.7263008 133.186005,-11.6921974 Z"></path>
                </g>
            </g>
            <mask id="mask-31" fill="white">
                <use xlink:href="#path-30"></use>
            </mask>
            <g id="blue-base"></g>
            <g id="fold" mask="url(#mask-31)">
                <use fill="url(#linearGradient-32)" xlink:href="#path-34"></use>
                <use fill="url(#linearGradient-33)" xlink:href="#path-34"></use>
            </g>
            <path d="M98.9278203,154.785909 C112.925302,145.116665 129.51601,142.020559 145.035728,144.833463 C160.585817,147.651871 175.06072,156.402438 184.774665,170.417128 C185.962635,172.131059 187.063021,173.904068 188.071597,175.729347 L277.813518,338.139104 L278.393265,339.080215 C280.702667,342.750112 290.760778,356.864163 302.100114,363.772583 C309.290656,368.153376 314.915867,370.143107 318.371318,371.06516 L318.584,371.121 L318.4946,371.171697 C317.916298,371.513114 317.322077,371.997336 316.720087,372.64829 L316.493992,372.90026 C315.127962,374.468108 313.645703,376.940657 312.055894,379.631268 C309.768116,383.503131 307.254401,387.923369 304.30811,390.071297 C303.532688,390.636601 302.732874,391.034773 301.873827,391.069622 C301.152731,391.098874 300.416724,390.852735 299.644536,390.348412 L283.486285,378.084524 C265.887002,366.206325 29.5217068,204.033026 19.7821392,197.038312 C19.098554,196.547379 19.3823386,195.291714 19.4936657,194.116549 C19.7697951,191.201736 20.893183,187.383928 22.1347828,183.482934 L22.4118055,182.61758 C22.6657149,181.828537 22.9231421,181.038501 23.1788562,180.253707 C24.6979178,175.591662 26.0300608,171.120295 26.4516023,167.904196 L26.461,167.827 L26.6479707,168.14787 C26.9664867,168.691143 27.3023709,169.257426 27.656573,169.84838 L27.925674,170.296248 C31.804743,176.736741 37.4657546,179.841018 43.4804235,180.918991 C51.5086403,182.357839 60.19258,180.078816 65.7963128,177.44132 C71.8961408,174.570328 82.9479321,167.033094 98.9278203,154.785909 Z" id="fold-border" stroke="url(#linearGradient-35)" stroke-width="4.5" mask="url(#mask-31)"></path>
        </g>
    </g>
</svg>